<svg width="24" height="25" viewBox="0 0 24 25" fill="none" xmlns="http://www.w3.org/2000/svg">
<path d="M10.997 6C8.24314 6 6 8.24314 6 10.997C6 13.7508 8.24314 15.994 10.997 15.994C12.1945 15.994 13.2943 15.5687 14.1562 14.8628L17.1398 17.8464C17.1858 17.8943 17.241 17.9326 17.302 17.959C17.363 17.9854 17.4287 17.9993 17.4952 18C17.5616 18.0007 17.6276 17.9881 17.6891 17.9629C17.7507 17.9378 17.8066 17.9006 17.8536 17.8536C17.9006 17.8066 17.9378 17.7507 17.9629 17.6891C17.9881 17.6276 18.0007 17.5616 18 17.4952C17.9993 17.4287 17.9854 17.363 17.959 17.302C17.9326 17.241 17.8943 17.1858 17.8464 17.1398L14.8628 14.1562C15.5687 13.2943 15.994 12.1945 15.994 10.997C15.994 8.24314 13.7508 6 10.997 6ZM10.997 6.9994C13.2107 6.9994 14.9946 8.78326 14.9946 10.997C14.9946 13.2107 13.2107 14.9946 10.997 14.9946C8.78326 14.9946 6.9994 13.2107 6.9994 10.997C6.9994 8.78326 8.78326 6.9994 10.997 6.9994Z" fill="#122620"/>
</svg>
